<svg width="32" height="32" viewBox="0 0 32 32" fill="none" xmlns="http://www.w3.org/2000/svg">
  <!-- Ghost body - simplified for favicon size -->
  <path d="M16 3C9.37 3 4 8.37 4 15v11c0 .6.4.8.8.5l2-1.3c.4-.3.9-.3 1.3 0l2 1.3c.4.3.9.3 1.3 0l2-1.3c.4-.3.9-.3 1.3 0L16 26.5l1.3-1.3c.4-.3.9-.3 1.3 0l2 1.3c.4.3.9.3 1.3 0l2-1.3c.4-.3.9-.3 1.3 0l2 1.3c.4.3.8.1.8-.5V15C28 8.37 22.63 3 16 3z" fill="#18181B" stroke="#8B5CF6" stroke-width="1.5"/>
  <!-- Eyes -->
  <circle cx="12" cy="14" r="2" fill="#8B5CF6"/>
  <circle cx="20" cy="14" r="2" fill="#8B5CF6"/>
  <!-- Timeline dot -->
  <circle cx="16" cy="20" r="1.5" fill="#22D3EE"/>
</svg>
