<svg width="120" height="120" viewBox="0 0 120 120" fill="none" xmlns="http://www.w3.org/2000/svg">
  <!-- Ghost body -->
  <path d="M60 16C38.46 16 21 33.46 21 55v33c0 2 1.5 3 3 2l8-5c1.5-1 3.5-1 5 0l8 5c1.5 1 3.5 1 5 0l8-5c1.5-1 3.5-1 5 0l8 5c1.5 1 3.5 1 5 0l8-5c1.5-1 3.5-1 5 0l8 5c1.5 1 3-0 3-2V55c0-21.54-17.46-39-39-39z" fill="#18181B" stroke="#27272A" stroke-width="2"/>
  <!-- Left eye -->
  <circle cx="46" cy="52" r="5" fill="#8B5CF6" opacity="0.7"/>
  <!-- Right eye -->
  <circle cx="74" cy="52" r="5" fill="#8B5CF6" opacity="0.7"/>
  <!-- Timeline trace through body -->
  <line x1="30" y1="70" x2="48" y2="70" stroke="#27272A" stroke-width="2" stroke-linecap="round"/>
  <circle cx="48" cy="70" r="3" fill="#8B5CF6" opacity="0.4"/>
  <line x1="51" y1="70" x2="69" y2="70" stroke="#27272A" stroke-width="2" stroke-linecap="round"/>
  <circle cx="69" cy="70" r="3" fill="#22D3EE" opacity="0.4"/>
  <line x1="72" y1="70" x2="90" y2="70" stroke="#27272A" stroke-width="2" stroke-linecap="round"/>
</svg>
